<mxfile host="Electron" modified="2023-06-11T13:44:22.373Z" agent="Mozilla/5.0 (Macintosh; Intel Mac OS X 10_15_7) AppleWebKit/537.36 (KHTML, like Gecko) draw.io/21.2.1 Chrome/112.0.5615.87 Electron/24.1.2 Safari/537.36" etag="CqIuqOOqzjIi1YlyjfUs" version="21.2.1" type="device">
  <diagram id="Ovr1TUedW7a9WGmtUl1n" name="phase1">
    <mxGraphModel dx="2028" dy="1214" grid="1" gridSize="10" guides="1" tooltips="1" connect="1" arrows="1" fold="1" page="1" pageScale="1" pageWidth="1100" pageHeight="850" math="0" shadow="0">
      <root>
        <mxCell id="0" />
        <mxCell id="1" parent="0" />
        <mxCell id="1aUwhizor78YT0axSQwj-27" value="Region" style="points=[[0,0],[0.25,0],[0.5,0],[0.75,0],[1,0],[1,0.25],[1,0.5],[1,0.75],[1,1],[0.75,1],[0.5,1],[0.25,1],[0,1],[0,0.75],[0,0.5],[0,0.25]];outlineConnect=0;gradientColor=none;html=1;whiteSpace=wrap;fontSize=12;fontStyle=0;shape=mxgraph.aws4.group;grIcon=mxgraph.aws4.group_region;strokeColor=#147EBA;fillColor=none;verticalAlign=top;align=left;spacingLeft=30;fontColor=#147EBA;dashed=1;" parent="1" vertex="1">
          <mxGeometry x="60" y="270" width="1410" height="660" as="geometry" />
        </mxCell>
        <mxCell id="1aUwhizor78YT0axSQwj-3" value="Telkomsel PoC VPC" style="points=[[0,0],[0.25,0],[0.5,0],[0.75,0],[1,0],[1,0.25],[1,0.5],[1,0.75],[1,1],[0.75,1],[0.5,1],[0.25,1],[0,1],[0,0.75],[0,0.5],[0,0.25]];outlineConnect=0;gradientColor=none;html=1;whiteSpace=wrap;fontSize=12;fontStyle=0;shape=mxgraph.aws4.group;grIcon=mxgraph.aws4.group_vpc;strokeColor=#248814;fillColor=none;verticalAlign=top;align=left;spacingLeft=30;fontColor=#AAB7B8;dashed=0;" parent="1" vertex="1">
          <mxGeometry x="340" y="330" width="610" height="560" as="geometry" />
        </mxCell>
        <mxCell id="1aUwhizor78YT0axSQwj-4" value="Availability Zone" style="fillColor=none;strokeColor=#147EBA;dashed=1;verticalAlign=top;fontStyle=0;fontColor=#147EBA;" parent="1" vertex="1">
          <mxGeometry x="380" y="370" width="260" height="490" as="geometry" />
        </mxCell>
        <mxCell id="1aUwhizor78YT0axSQwj-6" value="Availability Zone" style="fillColor=none;strokeColor=#147EBA;dashed=1;verticalAlign=top;fontStyle=0;fontColor=#147EBA;" parent="1" vertex="1">
          <mxGeometry x="650" y="370" width="260" height="490" as="geometry" />
        </mxCell>
        <mxCell id="1aUwhizor78YT0axSQwj-7" value="Private subnet - Application" style="points=[[0,0],[0.25,0],[0.5,0],[0.75,0],[1,0],[1,0.25],[1,0.5],[1,0.75],[1,1],[0.75,1],[0.5,1],[0.25,1],[0,1],[0,0.75],[0,0.5],[0,0.25]];outlineConnect=0;gradientColor=none;html=1;whiteSpace=wrap;fontSize=12;fontStyle=0;shape=mxgraph.aws4.group;grIcon=mxgraph.aws4.group_security_group;grStroke=0;strokeColor=#147EBA;fillColor=#E6F2F8;verticalAlign=top;align=left;spacingLeft=30;fontColor=#147EBA;dashed=0;" parent="1" vertex="1">
          <mxGeometry x="393" y="550" width="234" height="270" as="geometry" />
        </mxCell>
        <mxCell id="1aUwhizor78YT0axSQwj-8" value="Private subnet - Application" style="points=[[0,0],[0.25,0],[0.5,0],[0.75,0],[1,0],[1,0.25],[1,0.5],[1,0.75],[1,1],[0.75,1],[0.5,1],[0.25,1],[0,1],[0,0.75],[0,0.5],[0,0.25]];outlineConnect=0;gradientColor=none;html=1;whiteSpace=wrap;fontSize=12;fontStyle=0;shape=mxgraph.aws4.group;grIcon=mxgraph.aws4.group_security_group;grStroke=0;strokeColor=#147EBA;fillColor=#E6F2F8;verticalAlign=top;align=left;spacingLeft=30;fontColor=#147EBA;dashed=0;" parent="1" vertex="1">
          <mxGeometry x="663" y="550" width="234" height="270" as="geometry" />
        </mxCell>
        <mxCell id="1aUwhizor78YT0axSQwj-9" value="Public subnet" style="points=[[0,0],[0.25,0],[0.5,0],[0.75,0],[1,0],[1,0.25],[1,0.5],[1,0.75],[1,1],[0.75,1],[0.5,1],[0.25,1],[0,1],[0,0.75],[0,0.5],[0,0.25]];outlineConnect=0;gradientColor=none;html=1;whiteSpace=wrap;fontSize=12;fontStyle=0;shape=mxgraph.aws4.group;grIcon=mxgraph.aws4.group_security_group;grStroke=0;strokeColor=#248814;fillColor=#E9F3E6;verticalAlign=top;align=left;spacingLeft=30;fontColor=#248814;dashed=0;" parent="1" vertex="1">
          <mxGeometry x="393" y="410" width="237" height="130" as="geometry" />
        </mxCell>
        <mxCell id="1aUwhizor78YT0axSQwj-10" value="Public subnet" style="points=[[0,0],[0.25,0],[0.5,0],[0.75,0],[1,0],[1,0.25],[1,0.5],[1,0.75],[1,1],[0.75,1],[0.5,1],[0.25,1],[0,1],[0,0.75],[0,0.5],[0,0.25]];outlineConnect=0;gradientColor=none;html=1;whiteSpace=wrap;fontSize=12;fontStyle=0;shape=mxgraph.aws4.group;grIcon=mxgraph.aws4.group_security_group;grStroke=0;strokeColor=#248814;fillColor=#E9F3E6;verticalAlign=top;align=left;spacingLeft=30;fontColor=#248814;dashed=0;" parent="1" vertex="1">
          <mxGeometry x="661.5" y="410" width="237" height="130" as="geometry" />
        </mxCell>
        <mxCell id="1aUwhizor78YT0axSQwj-11" value="ECS Container Instance" style="sketch=0;points=[[0,0,0],[0.25,0,0],[0.5,0,0],[0.75,0,0],[1,0,0],[0,1,0],[0.25,1,0],[0.5,1,0],[0.75,1,0],[1,1,0],[0,0.25,0],[0,0.5,0],[0,0.75,0],[1,0.25,0],[1,0.5,0],[1,0.75,0]];outlineConnect=0;fontColor=#232F3E;gradientColor=#F78E04;gradientDirection=north;fillColor=#D05C17;strokeColor=#ffffff;dashed=0;verticalLabelPosition=bottom;verticalAlign=top;align=center;html=1;fontSize=12;fontStyle=0;aspect=fixed;shape=mxgraph.aws4.resourceIcon;resIcon=mxgraph.aws4.ec2;" parent="1" vertex="1">
          <mxGeometry x="478" y="670" width="48" height="48" as="geometry" />
        </mxCell>
        <mxCell id="1aUwhizor78YT0axSQwj-13" value="ECS Container Instance" style="sketch=0;points=[[0,0,0],[0.25,0,0],[0.5,0,0],[0.75,0,0],[1,0,0],[0,1,0],[0.25,1,0],[0.5,1,0],[0.75,1,0],[1,1,0],[0,0.25,0],[0,0.5,0],[0,0.75,0],[1,0.25,0],[1,0.5,0],[1,0.75,0]];outlineConnect=0;fontColor=#232F3E;gradientColor=#F78E04;gradientDirection=north;fillColor=#D05C17;strokeColor=#ffffff;dashed=0;verticalLabelPosition=bottom;verticalAlign=top;align=center;html=1;fontSize=12;fontStyle=0;aspect=fixed;shape=mxgraph.aws4.resourceIcon;resIcon=mxgraph.aws4.ec2;" parent="1" vertex="1">
          <mxGeometry x="754.5" y="666" width="48" height="48" as="geometry" />
        </mxCell>
        <mxCell id="1aUwhizor78YT0axSQwj-17" value="NAT Gateway" style="sketch=0;outlineConnect=0;fontColor=#232F3E;gradientColor=none;fillColor=#A166FF;strokeColor=none;dashed=0;verticalLabelPosition=bottom;verticalAlign=top;align=center;html=1;fontSize=12;fontStyle=0;aspect=fixed;pointerEvents=1;shape=mxgraph.aws4.nat_gateway;" parent="1" vertex="1">
          <mxGeometry x="430" y="451" width="48" height="48" as="geometry" />
        </mxCell>
        <mxCell id="Y1ofZ16g-ZphQtPir2AR-9" style="edgeStyle=orthogonalEdgeStyle;rounded=0;orthogonalLoop=1;jettySize=auto;html=1;" parent="1" source="1aUwhizor78YT0axSQwj-19" target="1aUwhizor78YT0axSQwj-20" edge="1">
          <mxGeometry relative="1" as="geometry">
            <Array as="points">
              <mxPoint x="644" y="475" />
              <mxPoint x="652" y="475" />
            </Array>
            <mxPoint x="598" y="475" as="sourcePoint" />
          </mxGeometry>
        </mxCell>
        <mxCell id="1aUwhizor78YT0axSQwj-19" value="" style="sketch=0;outlineConnect=0;fontColor=#232F3E;gradientColor=none;fillColor=#A166FF;strokeColor=none;dashed=0;verticalLabelPosition=bottom;verticalAlign=top;align=center;html=1;fontSize=12;fontStyle=0;aspect=fixed;pointerEvents=1;shape=mxgraph.aws4.internet_gateway;" parent="1" vertex="1">
          <mxGeometry x="621" y="310" width="48" height="48" as="geometry" />
        </mxCell>
        <mxCell id="Y1ofZ16g-ZphQtPir2AR-10" style="edgeStyle=orthogonalEdgeStyle;rounded=0;orthogonalLoop=1;jettySize=auto;html=1;" parent="1" source="1aUwhizor78YT0axSQwj-20" target="1aUwhizor78YT0axSQwj-15" edge="1">
          <mxGeometry relative="1" as="geometry" />
        </mxCell>
        <mxCell id="1aUwhizor78YT0axSQwj-20" value="Application Load Balancer" style="sketch=0;outlineConnect=0;fontColor=#232F3E;gradientColor=none;fillColor=#A166FF;strokeColor=none;dashed=0;verticalLabelPosition=bottom;verticalAlign=top;align=center;html=1;fontSize=12;fontStyle=0;aspect=fixed;pointerEvents=1;shape=mxgraph.aws4.application_load_balancer;" parent="1" vertex="1">
          <mxGeometry x="620" y="460" width="49" height="49" as="geometry" />
        </mxCell>
        <mxCell id="pYNLeUhJEjiE2wQQmEpF-4" value="" style="edgeStyle=orthogonalEdgeStyle;rounded=0;orthogonalLoop=1;jettySize=auto;html=1;" parent="1" source="Y1ofZ16g-ZphQtPir2AR-7" target="1aUwhizor78YT0axSQwj-19" edge="1">
          <mxGeometry relative="1" as="geometry">
            <mxPoint x="754" y="451" as="targetPoint" />
          </mxGeometry>
        </mxCell>
        <mxCell id="Y1ofZ16g-ZphQtPir2AR-7" value="App Users" style="sketch=0;outlineConnect=0;fontColor=#232F3E;gradientColor=none;fillColor=#232F3E;strokeColor=none;dashed=0;verticalLabelPosition=bottom;verticalAlign=top;align=center;html=1;fontSize=12;fontStyle=0;aspect=fixed;pointerEvents=1;shape=mxgraph.aws4.users;" parent="1" vertex="1">
          <mxGeometry x="615.5" y="160" width="58" height="58" as="geometry" />
        </mxCell>
        <mxCell id="Y1ofZ16g-ZphQtPir2AR-12" style="edgeStyle=orthogonalEdgeStyle;rounded=0;orthogonalLoop=1;jettySize=auto;html=1;" parent="1" source="Y1ofZ16g-ZphQtPir2AR-11" target="xgEI06C0NCt-1WO_fs6l-2" edge="1">
          <mxGeometry relative="1" as="geometry">
            <mxPoint x="829" y="451" as="targetPoint" />
          </mxGeometry>
        </mxCell>
        <mxCell id="xgEI06C0NCt-1WO_fs6l-3" value="CDK provisioning" style="edgeLabel;html=1;align=center;verticalAlign=middle;resizable=0;points=[];" parent="Y1ofZ16g-ZphQtPir2AR-12" vertex="1" connectable="0">
          <mxGeometry x="-0.6923" relative="1" as="geometry">
            <mxPoint y="85" as="offset" />
          </mxGeometry>
        </mxCell>
        <mxCell id="Y1ofZ16g-ZphQtPir2AR-11" value="Admin/Developer" style="sketch=0;outlineConnect=0;fontColor=#232F3E;gradientColor=none;fillColor=#232F3E;strokeColor=none;dashed=0;verticalLabelPosition=bottom;verticalAlign=top;align=center;html=1;fontSize=12;fontStyle=0;aspect=fixed;pointerEvents=1;shape=mxgraph.aws4.users;" parent="1" vertex="1">
          <mxGeometry x="200" y="160" width="58" height="58" as="geometry" />
        </mxCell>
        <mxCell id="1aUwhizor78YT0axSQwj-15" value="Auto Scaling group" style="points=[[0,0],[0.25,0],[0.5,0],[0.75,0],[1,0],[1,0.25],[1,0.5],[1,0.75],[1,1],[0.75,1],[0.5,1],[0.25,1],[0,1],[0,0.75],[0,0.5],[0,0.25]];outlineConnect=0;gradientColor=none;html=1;whiteSpace=wrap;fontSize=12;fontStyle=0;shape=mxgraph.aws4.groupCenter;grIcon=mxgraph.aws4.group_auto_scaling_group;grStroke=1;strokeColor=#D86613;fillColor=none;verticalAlign=top;align=center;fontColor=#D86613;dashed=1;spacingTop=25;" parent="1" vertex="1">
          <mxGeometry x="365" y="630" width="560" height="130" as="geometry" />
        </mxCell>
        <mxCell id="xgEI06C0NCt-1WO_fs6l-35" value="" style="group;fillColor=#fff2cc;strokeColor=#d6b656;" parent="1" vertex="1" connectable="0">
          <mxGeometry x="1010" y="410" width="430.00000000000006" height="362.9230769230769" as="geometry" />
        </mxCell>
        <mxCell id="xgEI06C0NCt-1WO_fs6l-34" value="" style="group" parent="xgEI06C0NCt-1WO_fs6l-35" vertex="1" connectable="0">
          <mxGeometry x="3.524821917808228" y="12.923076923076923" width="426.4751780821918" height="350" as="geometry" />
        </mxCell>
        <mxCell id="xgEI06C0NCt-1WO_fs6l-27" value="" style="group" parent="xgEI06C0NCt-1WO_fs6l-34" vertex="1" connectable="0">
          <mxGeometry x="77.98904109589041" y="111.99999999999999" width="341.42706849315067" height="155.07692307692307" as="geometry" />
        </mxCell>
        <mxCell id="xgEI06C0NCt-1WO_fs6l-8" value="Container" style="sketch=0;outlineConnect=0;fontColor=#232F3E;gradientColor=none;fillColor=#FF9900;strokeColor=none;dashed=0;verticalLabelPosition=bottom;verticalAlign=top;align=center;html=1;fontSize=12;fontStyle=0;aspect=fixed;pointerEvents=1;shape=mxgraph.aws4.container_1;" parent="xgEI06C0NCt-1WO_fs6l-27" vertex="1">
          <mxGeometry x="24.504109589041096" y="84.64615384615384" width="38.97458377239199" height="25.17108535300316" as="geometry" />
        </mxCell>
        <mxCell id="xgEI06C0NCt-1WO_fs6l-11" value="ECS Task" style="sketch=0;outlineConnect=0;fontColor=#232F3E;gradientColor=none;fillColor=#FF9900;strokeColor=none;dashed=0;verticalLabelPosition=bottom;verticalAlign=top;align=center;html=1;fontSize=12;fontStyle=0;aspect=fixed;pointerEvents=1;shape=mxgraph.aws4.ecs_task;" parent="xgEI06C0NCt-1WO_fs6l-27" vertex="1">
          <mxGeometry x="30.41336986301368" y="17.446153846153845" width="28.792473761854577" height="37.350642781875656" as="geometry" />
        </mxCell>
        <mxCell id="xgEI06C0NCt-1WO_fs6l-14" value="" style="fillColor=none;strokeColor=#5A6C86;dashed=1;verticalAlign=top;fontStyle=0;fontColor=#5A6C86;" parent="xgEI06C0NCt-1WO_fs6l-27" vertex="1">
          <mxGeometry y="0.21538461538461534" width="94.24657534246576" height="138.27692307692305" as="geometry" />
        </mxCell>
        <mxCell id="xgEI06C0NCt-1WO_fs6l-15" value="Container" style="sketch=0;outlineConnect=0;fontColor=#232F3E;gradientColor=none;fillColor=#FF9900;strokeColor=none;dashed=0;verticalLabelPosition=bottom;verticalAlign=top;align=center;html=1;fontSize=12;fontStyle=0;aspect=fixed;pointerEvents=1;shape=mxgraph.aws4.container_1;" parent="xgEI06C0NCt-1WO_fs6l-27" vertex="1">
          <mxGeometry x="130.31473972602737" y="84.64615384615384" width="38.97458377239199" height="25.17108535300316" as="geometry" />
        </mxCell>
        <mxCell id="xgEI06C0NCt-1WO_fs6l-16" value="ECS Task" style="sketch=0;outlineConnect=0;fontColor=#232F3E;gradientColor=none;fillColor=#FF9900;strokeColor=none;dashed=0;verticalLabelPosition=bottom;verticalAlign=top;align=center;html=1;fontSize=12;fontStyle=0;aspect=fixed;pointerEvents=1;shape=mxgraph.aws4.ecs_task;" parent="xgEI06C0NCt-1WO_fs6l-27" vertex="1">
          <mxGeometry x="136.22399999999996" y="17.446153846153845" width="28.792473761854577" height="37.350642781875656" as="geometry" />
        </mxCell>
        <mxCell id="xgEI06C0NCt-1WO_fs6l-17" value="" style="fillColor=none;strokeColor=#5A6C86;dashed=1;verticalAlign=top;fontStyle=0;fontColor=#5A6C86;" parent="xgEI06C0NCt-1WO_fs6l-27" vertex="1">
          <mxGeometry x="105.81063013698629" y="0.21538461538461534" width="94.24657534246576" height="138.27692307692305" as="geometry" />
        </mxCell>
        <mxCell id="xgEI06C0NCt-1WO_fs6l-18" value="Container" style="sketch=0;outlineConnect=0;fontColor=#232F3E;gradientColor=none;fillColor=#FF9900;strokeColor=none;dashed=0;verticalLabelPosition=bottom;verticalAlign=top;align=center;html=1;fontSize=12;fontStyle=0;aspect=fixed;pointerEvents=1;shape=mxgraph.aws4.container_1;" parent="xgEI06C0NCt-1WO_fs6l-27" vertex="1">
          <mxGeometry x="233.9859726027397" y="84.43076923076922" width="38.97458377239199" height="25.17108535300316" as="geometry" />
        </mxCell>
        <mxCell id="xgEI06C0NCt-1WO_fs6l-19" value="ECS Task" style="sketch=0;outlineConnect=0;fontColor=#232F3E;gradientColor=none;fillColor=#FF9900;strokeColor=none;dashed=0;verticalLabelPosition=bottom;verticalAlign=top;align=center;html=1;fontSize=12;fontStyle=0;aspect=fixed;pointerEvents=1;shape=mxgraph.aws4.ecs_task;" parent="xgEI06C0NCt-1WO_fs6l-27" vertex="1">
          <mxGeometry x="239.8952328767123" y="17.23076923076923" width="28.792473761854577" height="37.350642781875656" as="geometry" />
        </mxCell>
        <mxCell id="xgEI06C0NCt-1WO_fs6l-20" value="" style="fillColor=none;strokeColor=#5A6C86;dashed=1;verticalAlign=top;fontStyle=0;fontColor=#5A6C86;" parent="xgEI06C0NCt-1WO_fs6l-27" vertex="1">
          <mxGeometry x="209.48186301369861" width="94.24657534246576" height="138.27692307692305" as="geometry" />
        </mxCell>
        <mxCell id="xgEI06C0NCt-1WO_fs6l-7" value="" style="sketch=0;outlineConnect=0;fontColor=#232F3E;gradientColor=none;fillColor=#FF9900;strokeColor=none;dashed=0;verticalLabelPosition=bottom;verticalAlign=top;align=center;html=1;fontSize=12;fontStyle=0;aspect=fixed;pointerEvents=1;shape=mxgraph.aws4.ecs_service;" parent="xgEI06C0NCt-1WO_fs6l-34" vertex="1">
          <mxGeometry x="21.44109589041096" width="31.666849315068497" height="38.974583772391995" as="geometry" />
        </mxCell>
        <mxCell id="xgEI06C0NCt-1WO_fs6l-29" style="edgeStyle=orthogonalEdgeStyle;rounded=0;orthogonalLoop=1;jettySize=auto;html=1;entryX=0.5;entryY=0;entryDx=0;entryDy=0;" parent="xgEI06C0NCt-1WO_fs6l-34" source="xgEI06C0NCt-1WO_fs6l-7" target="xgEI06C0NCt-1WO_fs6l-14" edge="1">
          <mxGeometry relative="1" as="geometry">
            <Array as="points">
              <mxPoint x="40.29041095890411" y="86.15384615384616" />
              <mxPoint x="125.11232876712329" y="86.15384615384616" />
            </Array>
          </mxGeometry>
        </mxCell>
        <mxCell id="xgEI06C0NCt-1WO_fs6l-28" style="edgeStyle=orthogonalEdgeStyle;rounded=0;orthogonalLoop=1;jettySize=auto;html=1;" parent="xgEI06C0NCt-1WO_fs6l-34" source="xgEI06C0NCt-1WO_fs6l-7" target="xgEI06C0NCt-1WO_fs6l-17" edge="1">
          <mxGeometry relative="1" as="geometry">
            <mxPoint x="228.7835616438356" y="129.23076923076923" as="targetPoint" />
            <Array as="points">
              <mxPoint x="40.29041095890411" y="86.15384615384616" />
              <mxPoint x="228.7835616438356" y="86.15384615384616" />
            </Array>
          </mxGeometry>
        </mxCell>
        <mxCell id="xgEI06C0NCt-1WO_fs6l-30" style="edgeStyle=orthogonalEdgeStyle;rounded=0;orthogonalLoop=1;jettySize=auto;html=1;entryX=0.5;entryY=0;entryDx=0;entryDy=0;" parent="xgEI06C0NCt-1WO_fs6l-34" source="xgEI06C0NCt-1WO_fs6l-7" target="xgEI06C0NCt-1WO_fs6l-20" edge="1">
          <mxGeometry relative="1" as="geometry">
            <mxPoint x="49.24383561643835" y="58.58461538461538" as="sourcePoint" />
            <mxPoint x="132.3975890410959" y="138.06153846153845" as="targetPoint" />
            <Array as="points">
              <mxPoint x="40.29041095890411" y="86.15384615384616" />
              <mxPoint x="334.33972602739726" y="86.15384615384616" />
            </Array>
          </mxGeometry>
        </mxCell>
        <mxCell id="xgEI06C0NCt-1WO_fs6l-23" value="Task Definition" style="sketch=0;outlineConnect=0;fontColor=#232F3E;gradientColor=none;fillColor=#FF9900;strokeColor=none;dashed=0;verticalLabelPosition=bottom;verticalAlign=top;align=center;html=1;fontSize=12;fontStyle=0;aspect=fixed;pointerEvents=1;shape=mxgraph.aws4.ecs_task;" parent="xgEI06C0NCt-1WO_fs6l-34" vertex="1">
          <mxGeometry x="125.11232876712329" y="4.3076923076923075" width="23.782615806111696" height="30.854878819810324" as="geometry" />
        </mxCell>
        <mxCell id="xgEI06C0NCt-1WO_fs6l-26" style="edgeStyle=orthogonalEdgeStyle;rounded=0;orthogonalLoop=1;jettySize=auto;html=1;" parent="xgEI06C0NCt-1WO_fs6l-34" source="xgEI06C0NCt-1WO_fs6l-23" target="xgEI06C0NCt-1WO_fs6l-7" edge="1">
          <mxGeometry relative="1" as="geometry" />
        </mxCell>
        <mxCell id="xgEI06C0NCt-1WO_fs6l-31" value="ECS Service" style="rounded=0;whiteSpace=wrap;html=1;fillColor=#fff2cc;strokeColor=none;" parent="xgEI06C0NCt-1WO_fs6l-34" vertex="1">
          <mxGeometry y="49.96923076923077" width="79.63835616438357" height="17.23076923076923" as="geometry" />
        </mxCell>
        <mxCell id="k40PlapEYMD80Fz4r2Qn-2" value="" style="rounded=1;whiteSpace=wrap;html=1;fillColor=none;strokeColor=#f20707;" vertex="1" parent="xgEI06C0NCt-1WO_fs6l-34">
          <mxGeometry x="21.48" y="97.08" width="388.52" height="232.92" as="geometry" />
        </mxCell>
        <mxCell id="k40PlapEYMD80Fz4r2Qn-1" value="" style="sketch=0;outlineConnect=0;fontColor=#232F3E;gradientColor=none;fillColor=#D45B07;strokeColor=none;dashed=0;verticalLabelPosition=bottom;verticalAlign=top;align=center;html=1;fontSize=12;fontStyle=0;aspect=fixed;pointerEvents=1;shape=mxgraph.aws4.auto_scaling2;" vertex="1" parent="xgEI06C0NCt-1WO_fs6l-34">
          <mxGeometry x="136.48000000000002" y="287.54" width="35.08" height="35.08" as="geometry" />
        </mxCell>
        <mxCell id="k40PlapEYMD80Fz4r2Qn-3" value="Service Auto Scaling" style="text;html=1;strokeColor=none;fillColor=none;align=center;verticalAlign=middle;whiteSpace=wrap;rounded=0;" vertex="1" parent="xgEI06C0NCt-1WO_fs6l-34">
          <mxGeometry x="166.48" y="292.62" width="146.52" height="30" as="geometry" />
        </mxCell>
        <mxCell id="xgEI06C0NCt-1WO_fs6l-36" value="" style="curved=1;endArrow=classic;html=1;fillColor=#f8cecc;strokeWidth=3;strokeColor=#1180B8;" parent="1" source="1aUwhizor78YT0axSQwj-15" edge="1">
          <mxGeometry width="50" height="50" relative="1" as="geometry">
            <mxPoint x="950" y="210" as="sourcePoint" />
            <mxPoint x="1010" y="520" as="targetPoint" />
            <Array as="points">
              <mxPoint x="700" y="600" />
              <mxPoint x="890" y="600" />
              <mxPoint x="920" y="520" />
            </Array>
          </mxGeometry>
        </mxCell>
        <mxCell id="6Oid0ZZZIsH8X-VQpm7H-1" value="Capacity Provider for ECS" style="edgeLabel;html=1;align=center;verticalAlign=middle;resizable=0;points=[];labelBackgroundColor=none;" parent="xgEI06C0NCt-1WO_fs6l-36" vertex="1" connectable="0">
          <mxGeometry x="0.0789" y="8" relative="1" as="geometry">
            <mxPoint x="-59" y="17" as="offset" />
          </mxGeometry>
        </mxCell>
        <mxCell id="xgEI06C0NCt-1WO_fs6l-1" value="Elastic Container Service" style="sketch=0;points=[[0,0,0],[0.25,0,0],[0.5,0,0],[0.75,0,0],[1,0,0],[0,1,0],[0.25,1,0],[0.5,1,0],[0.75,1,0],[1,1,0],[0,0.25,0],[0,0.5,0],[0,0.75,0],[1,0.25,0],[1,0.5,0],[1,0.75,0]];outlineConnect=0;fontColor=#232F3E;gradientColor=#F78E04;gradientDirection=north;fillColor=#D05C17;strokeColor=#ffffff;dashed=0;verticalLabelPosition=bottom;verticalAlign=top;align=center;html=1;fontSize=12;fontStyle=0;aspect=fixed;shape=mxgraph.aws4.resourceIcon;resIcon=mxgraph.aws4.ecs;" parent="1" vertex="1">
          <mxGeometry x="1050" y="330" width="50" height="50" as="geometry" />
        </mxCell>
        <mxCell id="xgEI06C0NCt-1WO_fs6l-39" style="edgeStyle=orthogonalEdgeStyle;rounded=0;orthogonalLoop=1;jettySize=auto;html=1;strokeWidth=1;" parent="1" source="xgEI06C0NCt-1WO_fs6l-38" target="xgEI06C0NCt-1WO_fs6l-23" edge="1">
          <mxGeometry relative="1" as="geometry" />
        </mxCell>
        <mxCell id="xgEI06C0NCt-1WO_fs6l-38" value="Docker Hub" style="sketch=0;aspect=fixed;html=1;points=[];align=center;image;fontSize=12;image=img/lib/mscae/Docker.svg;" parent="1" vertex="1">
          <mxGeometry x="1125.53" y="168.5" width="50" height="41" as="geometry" />
        </mxCell>
        <mxCell id="6Oid0ZZZIsH8X-VQpm7H-2" value="S3 for&lt;br&gt;CDK Metadata" style="sketch=0;points=[[0,0,0],[0.25,0,0],[0.5,0,0],[0.75,0,0],[1,0,0],[0,1,0],[0.25,1,0],[0.5,1,0],[0.75,1,0],[1,1,0],[0,0.25,0],[0,0.5,0],[0,0.75,0],[1,0.25,0],[1,0.5,0],[1,0.75,0]];outlineConnect=0;fontColor=#232F3E;gradientColor=#60A337;gradientDirection=north;fillColor=#277116;strokeColor=#ffffff;dashed=0;verticalLabelPosition=bottom;verticalAlign=top;align=center;html=1;fontSize=12;fontStyle=0;aspect=fixed;shape=mxgraph.aws4.resourceIcon;resIcon=mxgraph.aws4.s3;labelBackgroundColor=none;" parent="1" vertex="1">
          <mxGeometry x="100" y="390" width="48" height="48" as="geometry" />
        </mxCell>
        <mxCell id="1aUwhizor78YT0axSQwj-24" value="IAM" style="sketch=0;points=[[0,0,0],[0.25,0,0],[0.5,0,0],[0.75,0,0],[1,0,0],[0,1,0],[0.25,1,0],[0.5,1,0],[0.75,1,0],[1,1,0],[0,0.25,0],[0,0.5,0],[0,0.75,0],[1,0.25,0],[1,0.5,0],[1,0.75,0]];outlineConnect=0;fontColor=#232F3E;gradientColor=#F54749;gradientDirection=north;fillColor=#C7131F;strokeColor=#ffffff;dashed=0;verticalLabelPosition=bottom;verticalAlign=top;align=center;html=1;fontSize=12;fontStyle=0;aspect=fixed;shape=mxgraph.aws4.resourceIcon;resIcon=mxgraph.aws4.identity_and_access_management;" parent="1" vertex="1">
          <mxGeometry x="204.5" y="490" width="50" height="50" as="geometry" />
        </mxCell>
        <mxCell id="1aUwhizor78YT0axSQwj-25" value="CloudWatch" style="sketch=0;points=[[0,0,0],[0.25,0,0],[0.5,0,0],[0.75,0,0],[1,0,0],[0,1,0],[0.25,1,0],[0.5,1,0],[0.75,1,0],[1,1,0],[0,0.25,0],[0,0.5,0],[0,0.75,0],[1,0.25,0],[1,0.5,0],[1,0.75,0]];points=[[0,0,0],[0.25,0,0],[0.5,0,0],[0.75,0,0],[1,0,0],[0,1,0],[0.25,1,0],[0.5,1,0],[0.75,1,0],[1,1,0],[0,0.25,0],[0,0.5,0],[0,0.75,0],[1,0.25,0],[1,0.5,0],[1,0.75,0]];outlineConnect=0;fontColor=#232F3E;gradientColor=#F34482;gradientDirection=north;fillColor=#BC1356;strokeColor=#ffffff;dashed=0;verticalLabelPosition=bottom;verticalAlign=top;align=center;html=1;fontSize=12;fontStyle=0;aspect=fixed;shape=mxgraph.aws4.resourceIcon;resIcon=mxgraph.aws4.cloudwatch_2;" parent="1" vertex="1">
          <mxGeometry x="204.5" y="582" width="48" height="48" as="geometry" />
        </mxCell>
        <mxCell id="6Oid0ZZZIsH8X-VQpm7H-3" style="edgeStyle=orthogonalEdgeStyle;rounded=0;orthogonalLoop=1;jettySize=auto;html=1;entryX=1;entryY=0.5;entryDx=0;entryDy=0;entryPerimeter=0;strokeColor=#000000;strokeWidth=1;" parent="1" source="xgEI06C0NCt-1WO_fs6l-2" target="6Oid0ZZZIsH8X-VQpm7H-2" edge="1">
          <mxGeometry relative="1" as="geometry" />
        </mxCell>
        <mxCell id="xgEI06C0NCt-1WO_fs6l-2" value="CloudFormation" style="sketch=0;points=[[0,0,0],[0.25,0,0],[0.5,0,0],[0.75,0,0],[1,0,0],[0,1,0],[0.25,1,0],[0.5,1,0],[0.75,1,0],[1,1,0],[0,0.25,0],[0,0.5,0],[0,0.75,0],[1,0.25,0],[1,0.5,0],[1,0.75,0]];points=[[0,0,0],[0.25,0,0],[0.5,0,0],[0.75,0,0],[1,0,0],[0,1,0],[0.25,1,0],[0.5,1,0],[0.75,1,0],[1,1,0],[0,0.25,0],[0,0.5,0],[0,0.75,0],[1,0.25,0],[1,0.5,0],[1,0.75,0]];outlineConnect=0;fontColor=#232F3E;gradientColor=#F34482;gradientDirection=north;fillColor=#BC1356;strokeColor=#ffffff;dashed=0;verticalLabelPosition=bottom;verticalAlign=top;align=center;html=1;fontSize=12;fontStyle=0;aspect=fixed;shape=mxgraph.aws4.resourceIcon;resIcon=mxgraph.aws4.cloudformation;" parent="1" vertex="1">
          <mxGeometry x="204.5" y="390" width="49" height="49" as="geometry" />
        </mxCell>
        <mxCell id="k40PlapEYMD80Fz4r2Qn-4" value="NAT Gateway" style="sketch=0;outlineConnect=0;fontColor=#232F3E;gradientColor=none;fillColor=#A166FF;strokeColor=none;dashed=0;verticalLabelPosition=bottom;verticalAlign=top;align=center;html=1;fontSize=12;fontStyle=0;aspect=fixed;pointerEvents=1;shape=mxgraph.aws4.nat_gateway;" vertex="1" parent="1">
          <mxGeometry x="820" y="451" width="48" height="48" as="geometry" />
        </mxCell>
      </root>
    </mxGraphModel>
  </diagram>
</mxfile>
